<svg viewBox="0 0 21 18" version="1.1" xmlns="http://www.w3.org/2000/svg" xmlns:xlink="http://www.w3.org/1999/xlink" xmlns:sketch="http://www.bohemiancoding.com/sketch/ns">
    <g id="Welcome" stroke="none" stroke-width="1" fill="none" fill-rule="evenodd" sketch:type="MSPage">
        <g id="Desktop-HD" sketch:type="MSArtboardGroup" transform="translate(-127.000000, -652.000000)" fill="#E0BF02">
            <g id="Sidebar" sketch:type="MSLayerGroup">
                <g id="Links" transform="translate(127.000000, 652.000000)" sketch:type="MSShapeGroup">
                    <path d="M21,2.1375 C20.4048223,3.05625 19.6852792,3.8390625 18.8413706,4.4859375 C18.8502538,4.6171875 18.8546954,4.8140625 18.8546954,5.0765625 C18.8546954,6.2953125 18.6859137,7.51171875 18.3483503,8.72578125 C18.0107868,9.93984375 17.4977792,11.1046875 16.8093274,12.2203125 C16.1208756,13.3359375 15.3013959,14.3226562 14.3508883,15.1804688 C13.4003807,16.0382813 12.2544416,16.7226562 10.9130711,17.2335938 C9.57170051,17.7445312 8.13705584,18 6.60913706,18 C4.20177665,18 1.99873096,17.3203125 0,15.9609375 C0.310913706,15.9984375 0.657360406,16.0171875 1.0393401,16.0171875 C3.03807107,16.0171875 4.81916244,15.3703125 6.38261421,14.0765625 C5.4498731,14.0578125 4.61484772,13.7554688 3.87753807,13.1695313 C3.14022843,12.5835937 2.63388325,11.8359375 2.35850254,10.9265625 C2.65164975,10.9734375 2.92258883,10.996875 3.1713198,10.996875 C3.55329949,10.996875 3.93083756,10.9453125 4.30393401,10.8421875 C3.30901015,10.6265625 2.48508883,10.1039062 1.83217005,9.27421875 C1.17925127,8.44453125 0.852791878,7.48125 0.852791878,6.384375 L0.852791878,6.328125 C1.45685279,6.684375 2.10532995,6.8765625 2.79822335,6.9046875 C2.21192893,6.4921875 1.74555838,5.953125 1.39911168,5.2875 C1.05266497,4.621875 0.879441624,3.9 0.879441624,3.121875 C0.879441624,2.296875 1.0748731,1.5328125 1.46573604,0.8296875 C2.54060914,2.2265625 3.84866751,3.34453125 5.38991117,4.18359375 C6.93115482,5.02265625 8.58121827,5.4890625 10.3401015,5.5828125 C10.2690355,5.2265625 10.2335025,4.8796875 10.2335025,4.5421875 C10.2335025,3.2859375 10.653236,2.21484375 11.492703,1.32890625 C12.3321701,0.44296875 13.3470812,0 14.5374365,0 C15.7810914,0 16.8293147,0.478125 17.6821066,1.434375 C18.6503807,1.2375 19.5609137,0.871875 20.4137056,0.3375 C20.0850254,1.415625 19.4543147,2.25 18.5215736,2.840625 C19.3477157,2.746875 20.1738579,2.5125 21,2.1375 L21,2.1375 Z" id="Shape"></path>
                </g>
            </g>
        </g>
    </g>
</svg>