<svg viewBox="0 0 15 18" version="1.1" xmlns="http://www.w3.org/2000/svg" xmlns:xlink="http://www.w3.org/1999/xlink" xmlns:sketch="http://www.bohemiancoding.com/sketch/ns">
    <g id="Welcome" stroke="none" stroke-width="1" fill="none" fill-rule="evenodd" sketch:type="MSPage">
        <g id="Desktop-HD" sketch:type="MSArtboardGroup" transform="translate(-218.000000, -652.000000)" fill="#E0BF02">
            <g id="Sidebar" sketch:type="MSLayerGroup">
                <g id="Links" transform="translate(127.000000, 652.000000)" sketch:type="MSShapeGroup">
                    <path d="M100.554656,12.4955357 L100.554656,14.6149554 C100.554656,15.0636161 100.423077,15.2879464 100.159919,15.2879464 C100.004723,15.2879464 99.8529015,15.2142857 99.7044534,15.0669643 L99.7044534,12.0435268 C99.8529015,11.8962054 100.004723,11.8225446 100.159919,11.8225446 C100.423077,11.8225446 100.554656,12.046875 100.554656,12.4955357 L100.554656,12.4955357 Z M103.975709,12.5055804 L103.975709,12.9676339 L103.064777,12.9676339 L103.064777,12.5055804 C103.064777,12.0502232 103.216599,11.8225446 103.520243,11.8225446 C103.823887,11.8225446 103.975709,12.0502232 103.975709,12.5055804 L103.975709,12.5055804 Z M94.1983806,10.3158482 L95.2813765,10.3158482 L95.2813765,9.37165179 L92.1234818,9.37165179 L92.1234818,10.3158482 L93.1862348,10.3158482 L93.1862348,16.03125 L94.1983806,16.03125 L94.1983806,10.3158482 L94.1983806,10.3158482 Z M97.1133603,16.03125 L98.01417,16.03125 L98.01417,11.0691964 L97.1133603,11.0691964 L97.1133603,14.8660714 C96.9109312,15.1473214 96.7186235,15.2879464 96.5364372,15.2879464 C96.4149798,15.2879464 96.3441296,15.2176339 96.3238866,15.0770089 C96.317139,15.0569196 96.3137652,14.9397321 96.3137652,14.7254464 L96.3137652,11.0691964 L95.4129555,11.0691964 L95.4129555,14.9966518 C95.4129555,15.3247768 95.439946,15.5691964 95.4939271,15.7299107 C95.5748988,15.9776786 95.7705803,16.1015625 96.0809717,16.1015625 C96.4048583,16.1015625 96.7489879,15.8973214 97.1133603,15.4888393 L97.1133603,16.03125 L97.1133603,16.03125 Z M101.455466,14.5446429 L101.455466,12.5658482 C101.455466,12.0770089 101.425101,11.7455357 101.364372,11.5714286 C101.249663,11.1964286 101.010121,11.0089286 100.645749,11.0089286 C100.308367,11.0089286 99.9946019,11.1897321 99.7044534,11.5513393 L99.7044534,9.37165179 L98.8036437,9.37165179 L98.8036437,16.03125 L99.7044534,16.03125 L99.7044534,15.5491071 C100.008097,15.9174107 100.321862,16.1015625 100.645749,16.1015625 C101.010121,16.1015625 101.249663,15.9174107 101.364372,15.5491071 C101.425101,15.3683036 101.455466,15.0334821 101.455466,14.5446429 L101.455466,14.5446429 Z M104.876518,14.4441964 L104.876518,14.3136161 L103.955466,14.3136161 C103.955466,14.6551339 103.948718,14.859375 103.935223,14.9263393 C103.887989,15.1674107 103.753036,15.2879464 103.530364,15.2879464 C103.219973,15.2879464 103.064777,15.0569196 103.064777,14.5948661 L103.064777,13.7209821 L104.876518,13.7209821 L104.876518,12.6863839 C104.876518,12.1573661 104.785425,11.7689732 104.603239,11.5212054 C104.340081,11.1796875 103.982456,11.0089286 103.530364,11.0089286 C103.071525,11.0089286 102.710526,11.1796875 102.447368,11.5212054 C102.258435,11.7689732 102.163968,12.1573661 102.163968,12.6863839 L102.163968,14.4241071 C102.163968,14.953125 102.261808,15.3415179 102.45749,15.5892857 C102.720648,15.9308036 103.08502,16.1015625 103.550607,16.1015625 C104.036437,16.1015625 104.40081,15.9241071 104.643725,15.5691964 C104.765182,15.3883929 104.836032,15.2075893 104.856275,15.0267857 C104.869771,14.9665179 104.876518,14.7723214 104.876518,14.4441964 L104.876518,14.4441964 Z M98.7226721,5.2734375 L98.7226721,3.1640625 C98.7226721,2.70200893 98.5775978,2.47098214 98.2874494,2.47098214 C97.9973009,2.47098214 97.8522267,2.70200893 97.8522267,3.1640625 L97.8522267,5.2734375 C97.8522267,5.7421875 97.9973009,5.9765625 98.2874494,5.9765625 C98.5775978,5.9765625 98.7226721,5.7421875 98.7226721,5.2734375 L98.7226721,5.2734375 Z M106,12.8169643 C106,14.3839286 105.912281,15.5558036 105.736842,16.3325893 C105.642375,16.7276786 105.446694,17.0591518 105.149798,17.3270089 C104.852901,17.5948661 104.508772,17.7488839 104.117409,17.7890625 C102.875843,17.9296875 101.003374,18 98.5,18 C95.9966262,18 94.1241565,17.9296875 92.8825911,17.7890625 C92.4912281,17.7488839 92.1454116,17.5948661 91.8451417,17.3270089 C91.5448718,17.0591518 91.3508772,16.7276786 91.2631579,16.3325893 C91.0877193,15.5825893 91,14.4107143 91,12.8169643 C91,11.25 91.0877193,10.078125 91.2631579,9.30133929 C91.3576248,8.90625 91.5533063,8.57477679 91.8502024,8.30691964 C92.1470985,8.0390625 92.4946019,7.88169643 92.8927126,7.83482143 C94.1275304,7.70089286 95.9966262,7.63392857 98.5,7.63392857 C101.003374,7.63392857 102.875843,7.70089286 104.117409,7.83482143 C104.508772,7.88169643 104.854588,8.0390625 105.154858,8.30691964 C105.455128,8.57477679 105.649123,8.90625 105.736842,9.30133929 C105.912281,10.0513393 106,11.2232143 106,12.8169643 L106,12.8169643 Z M95.8987854,0 L96.9311741,0 L95.7064777,4.0078125 L95.7064777,6.72991071 L94.694332,6.72991071 L94.694332,4.0078125 C94.599865,3.51227679 94.3940621,2.80245536 94.0769231,1.87834821 C93.8272605,1.18861607 93.6079622,0.5625 93.4190283,0 L94.4919028,0 L95.2105263,2.64174107 L95.8987854,0 Z M99.6437247,3.34486607 L99.6437247,5.10267857 C99.6437247,5.64508929 99.5492578,6.04017857 99.3603239,6.28794643 C99.1106613,6.62946429 98.7530364,6.80022321 98.2874494,6.80022321 C97.8353576,6.80022321 97.4811066,6.62946429 97.2246964,6.28794643 C97.0357625,6.03348214 96.9412955,5.63839286 96.9412955,5.10267857 L96.9412955,3.34486607 C96.9412955,2.80915179 97.0357625,2.41741071 97.2246964,2.16964286 C97.4811066,1.828125 97.8353576,1.65736607 98.2874494,1.65736607 C98.7530364,1.65736607 99.1106613,1.828125 99.3603239,2.16964286 C99.5492578,2.41741071 99.6437247,2.80915179 99.6437247,3.34486607 L99.6437247,3.34486607 Z M103.034413,1.71763393 L103.034413,6.72991071 L102.11336,6.72991071 L102.11336,6.17745536 C101.755735,6.59263393 101.408232,6.80022321 101.07085,6.80022321 C100.760459,6.80022321 100.561404,6.67633929 100.473684,6.42857143 C100.419703,6.26785714 100.392713,6.01674107 100.392713,5.67522321 L100.392713,1.71763393 L101.313765,1.71763393 L101.313765,5.40401786 C101.313765,5.625 101.317139,5.7421875 101.323887,5.75558036 C101.34413,5.90290179 101.41498,5.9765625 101.536437,5.9765625 C101.718623,5.9765625 101.910931,5.83258929 102.11336,5.54464286 L102.11336,1.71763393 L103.034413,1.71763393 L103.034413,1.71763393 Z" id="Shape"></path>
                </g>
            </g>
        </g>
    </g>
</svg>
